<svg xmlns="http://www.w3.org/2000/svg" width="500" height="500" version="1" viewBox="0 0 5000 5000">
  <defs>
    <linearGradient id="a" x1="0%" y1="0%" y2="0%">
      <stop offset="0%" stop-color="#00f1ba"/>
      <stop offset="100%" stop-color="#6074e6"/>
    </linearGradient>
  </defs>
  <g fill="url(#a)">
    <path d="M1335 3979c-638-478-1166-876-1174-884-11-11 47-58 372-302 213-158 386-290 386-293s-169-131-375-285-380-285-385-292c-8-9 300-245 1165-894l1176-881 227 170c1643 1231 2117 1589 2118 1597 0 6-172 138-382 295s-382 287-382 290 172 133 382 290 382 290 381 295c0 9-2332 1764-2344 1764-3 0-527-391-1165-870zm1924-305c416-312 762-572 769-579 11-9-22-38-165-145-98-74-185-134-193-134s-275 195-592 433c-383 287-581 430-590 425-7-4-267-199-578-433-311-233-572-425-580-425-21 0-372 266-363 275 13 13 1528 1148 1532 1149 3 0 345-255 760-566zm-844-822l142-139 84-5c94-7 187-36 275-89 68-41 346-306 386-368 53-85 27-190-58-231-41-20-42-22-33-55 19-68-17-140-85-174-39-18-40-19-38-72 3-65-20-109-73-140-19-12-35-24-35-28 0-3 54-60 121-126 66-66 127-133 136-149 22-42 20-122-4-155-47-63-121-87-189-61-15 6-160 142-322 301-255 252-302 295-357 321-44 20-75 28-101 26-35-3-41-8-74-65-83-147-149-203-239-203-60 0-98 17-134 59-52 62-47 92 47 248 60 101 78 161 83 278l4 100-135 135-136 135v53c0 108 58 219 179 344 122 128 249 197 360 198h54l142-138zm-127-1414c3-14-257-585-281-615-5-7-20-13-33-13-18 0-24 6-24 23 0 12 64 158 142 325 135 288 143 303 167 300 15-2 27-10 29-20zm158-182c5-13-19-247-32-303-5-27-51-33-60-9-5 13 19 247 32 304 5 26 51 32 60 8zm298-193c53-115 96-218 96-230 0-17-6-23-24-23-13 0-28 6-33 13-17 22-193 406-193 420 0 19 10 27 35 27 19 0 36-31 119-207zm-830 141c8-21-11-44-36-44-21 0-33 22-24 45 7 20 52 19 60-1zm721-434c0-20-5-25-25-25s-26 6-28 28c-3 26-1 28 25 25 22-2 28-8 28-28zm-368-2c19 11 26 12 38 2 18-15 20-41 4-57-8-8-7-16 2-30 7-11 9-28 6-37-7-18-47-22-64-5-8 8-13 8-17 0-11-17-56-13-63 5-3 9-1 25 5 35 9 14 9 25 0 45-11 23-10 28 7 40 16 12 22 12 39 0 18-11 24-11 43 2z"/>
    <path d="M2155 2912c-86-30-147-72-240-166-95-95-143-171-166-259l-12-49 109-109c97-98 110-108 122-92 6 9 12 24 12 34 0 9 19 54 41 100 71 141 222 271 359 310 81 23 81 23-37 141-59 59-114 108-123 108-8-1-38-8-65-18z"/>
    <path d="M2480 2639c-30-5-84-23-119-39-54-26-62-32-51-45 7-8 18-15 25-15 8 0 28-12 46-27 63-53 93-174 47-189-26-8-48 17-48 57 0 37-43 86-86 98-94 26-190-58-245-217-14-39-23-102-29-197-5-78-16-164-25-195-20-64-75-177-116-237-36-52-36-62 1-98 24-23 40-30 72-30 37 0 46 6 98 62 64 68 123 175 150 274 19 72 40 93 66 67 14-14 15-23 5-63-6-25-9-50-6-54 2-5 25-14 51-20 117-30 154-59 460-362 273-272 292-289 326-289 28 0 42 7 62 31 50 59 51 58-258 369-156 157-289 295-295 307s-11 42-11 68c0 80 39 130 117 150 44 11 47 14 58 58 14 54 36 82 84 107 34 17 35 18 32 76-2 70 20 114 76 146l36 22-56 52c-122 113-292 162-467 133zm225-1004c0-21-7-33-24-41-48-24-76 14-39 53 31 33 63 27 63-12zm223-203c5-32-25-62-60-62-22 0-28 5-28 22 0 54 81 91 88 40z"/>
    <path d="M2975 2348c-41-49-30-77 72-180 47-48 97-89 111-93 51-13 112 37 112 91 0 9-44 61-97 115-88 90-100 99-134 99-30 0-43-7-64-32zm-75-195c-36-13-60-47-60-82 0-33 10-46 93-128 50-51 103-94 117-98 33-7 87 26 96 60 11 44-3 68-93 157-84 83-119 104-153 91zm-215-205c-43-50-31-76 88-196 111-113 144-136 181-126 36 9 69 49 69 83 0 39-32 80-146 184-81 75-99 87-130 87-27 0-41-7-62-32z"/>
  </g>
</svg>